<svg viewBox="0 0 200 200" xmlns="http://www.w3.org/2000/svg">
  <path fill="#D9A53A" d="M35.3,-64.7C44.9,-55.6,51.3,-44.5,54.2,-33.3C57,-22.2,56.3,-11.1,60.7,2.5C65.1,16.2,74.6,32.4,73.4,46.3C72.2,60.2,60.2,71.8,46.1,73C32.1,74.2,16,65,1.6,62.3C-12.9,59.6,-25.8,63.3,-39,61.6C-52.3,60,-65.8,52.9,-73.1,41.7C-80.4,30.6,-81.5,15.3,-78.6,1.7C-75.7,-12,-68.9,-23.9,-62,-35.8C-55.1,-47.6,-48.1,-59.4,-37.7,-68.1C-27.4,-76.8,-13.7,-82.5,-0.4,-81.7C12.8,-81,25.7,-73.8,35.3,-64.7Z" transform="translate(100 100)" />
</svg>